<?xml version="1.0" encoding="UTF-8" standalone="no"?>
<!DOCTYPE svg PUBLIC "-//W3C//DTD SVG 1.1//EN"
 "http://www.w3.org/Graphics/SVG/1.1/DTD/svg11.dtd">
<!-- Generated by graphviz version 2.42.3 (20191010.1750)
 -->
<!-- Title: snakemake_dag Pages: 1 -->
<svg width="284pt" height="620pt"
 viewBox="0.00 0.00 283.50 620.00" xmlns="http://www.w3.org/2000/svg" xmlns:xlink="http://www.w3.org/1999/xlink">
<g id="graph0" class="graph" transform="scale(1 1) rotate(0) translate(4 616)">
<title>snakemake_dag</title>
<polygon fill="white" stroke="transparent" points="-4,4 -4,-616 279.5,-616 279.5,4 -4,4"/>
<!-- 0 -->
<g id="node1" class="node">
<title>0</title>
<path fill="none" stroke="#d8b456" stroke-width="2" d="M106,-36C106,-36 31,-36 31,-36 25,-36 19,-30 19,-24 19,-24 19,-12 19,-12 19,-6 25,0 31,0 31,0 106,0 106,0 112,0 118,-6 118,-12 118,-12 118,-24 118,-24 118,-30 112,-36 106,-36"/>
<text text-anchor="middle" x="68.5" y="-15.5" font-family="sans" font-size="10.00">temporal_resample</text>
</g>
<!-- 1 -->
<g id="node2" class="node">
<title>1</title>
<path fill="none" stroke="#59d856" stroke-width="2" d="M98,-108C98,-108 39,-108 39,-108 33,-108 27,-102 27,-96 27,-96 27,-84 27,-84 27,-78 33,-72 39,-72 39,-72 98,-72 98,-72 104,-72 110,-78 110,-84 110,-84 110,-96 110,-96 110,-102 104,-108 98,-108"/>
<text text-anchor="middle" x="68.5" y="-87.5" font-family="sans" font-size="10.00">temp_resample</text>
</g>
<!-- 1&#45;&gt;0 -->
<g id="edge1" class="edge">
<title>1&#45;&gt;0</title>
<path fill="none" stroke="grey" stroke-width="2" d="M68.5,-71.7C68.5,-63.98 68.5,-54.71 68.5,-46.11"/>
<polygon fill="grey" stroke="grey" stroke-width="2" points="72,-46.1 68.5,-36.1 65,-46.1 72,-46.1"/>
</g>
<!-- 2 -->
<g id="node3" class="node">
<title>2</title>
<path fill="none" stroke="#567bd8" stroke-width="2" d="M101,-180C101,-180 36,-180 36,-180 30,-180 24,-174 24,-168 24,-168 24,-156 24,-156 24,-150 30,-144 36,-144 36,-144 101,-144 101,-144 107,-144 113,-150 113,-156 113,-156 113,-168 113,-168 113,-174 107,-180 101,-180"/>
<text text-anchor="middle" x="68.5" y="-159.5" font-family="sans" font-size="10.00">metric_resample</text>
</g>
<!-- 2&#45;&gt;1 -->
<g id="edge2" class="edge">
<title>2&#45;&gt;1</title>
<path fill="none" stroke="grey" stroke-width="2" d="M68.5,-143.7C68.5,-135.98 68.5,-126.71 68.5,-118.11"/>
<polygon fill="grey" stroke="grey" stroke-width="2" points="72,-118.1 68.5,-108.1 65,-118.1 72,-118.1"/>
</g>
<!-- 3 -->
<g id="node4" class="node">
<title>3</title>
<path fill="none" stroke="#97d856" stroke-width="2" d="M140.5,-252C140.5,-252 110.5,-252 110.5,-252 104.5,-252 98.5,-246 98.5,-240 98.5,-240 98.5,-228 98.5,-228 98.5,-222 104.5,-216 110.5,-216 110.5,-216 140.5,-216 140.5,-216 146.5,-216 152.5,-222 152.5,-228 152.5,-228 152.5,-240 152.5,-240 152.5,-246 146.5,-252 140.5,-252"/>
<text text-anchor="middle" x="125.5" y="-231.5" font-family="sans" font-size="10.00">vol2surf</text>
</g>
<!-- 3&#45;&gt;2 -->
<g id="edge3" class="edge">
<title>3&#45;&gt;2</title>
<path fill="none" stroke="grey" stroke-width="2" d="M111.41,-215.7C104.58,-207.3 96.24,-197.07 88.74,-187.86"/>
<polygon fill="grey" stroke="grey" stroke-width="2" points="91.46,-185.65 82.43,-180.1 86.03,-190.07 91.46,-185.65"/>
</g>
<!-- 4 -->
<g id="node5" class="node">
<title>4</title>
<path fill="none" stroke="#d85656" stroke-width="2" d="M263.5,-324C263.5,-324 233.5,-324 233.5,-324 227.5,-324 221.5,-318 221.5,-312 221.5,-312 221.5,-300 221.5,-300 221.5,-294 227.5,-288 233.5,-288 233.5,-288 263.5,-288 263.5,-288 269.5,-288 275.5,-294 275.5,-300 275.5,-300 275.5,-312 275.5,-312 275.5,-318 269.5,-324 263.5,-324"/>
<text text-anchor="middle" x="248.5" y="-303.5" font-family="sans" font-size="10.00">denoise</text>
</g>
<!-- 4&#45;&gt;3 -->
<g id="edge6" class="edge">
<title>4&#45;&gt;3</title>
<path fill="none" stroke="grey" stroke-width="2" d="M221.2,-289.46C203.61,-279.45 180.53,-266.32 161.45,-255.46"/>
<polygon fill="grey" stroke="grey" stroke-width="2" points="163.14,-252.4 152.72,-250.49 159.68,-258.48 163.14,-252.4"/>
</g>
<!-- 5 -->
<g id="node6" class="node">
<title>5</title>
<path fill="none" stroke="#d6d856" stroke-width="2" d="M263.5,-396C263.5,-396 233.5,-396 233.5,-396 227.5,-396 221.5,-390 221.5,-384 221.5,-384 221.5,-372 221.5,-372 221.5,-366 227.5,-360 233.5,-360 233.5,-360 263.5,-360 263.5,-360 269.5,-360 275.5,-366 275.5,-372 275.5,-372 275.5,-384 275.5,-384 275.5,-390 269.5,-396 263.5,-396"/>
<text text-anchor="middle" x="248.5" y="-375.5" font-family="sans" font-size="10.00">smooth</text>
</g>
<!-- 5&#45;&gt;4 -->
<g id="edge8" class="edge">
<title>5&#45;&gt;4</title>
<path fill="none" stroke="grey" stroke-width="2" d="M248.5,-359.7C248.5,-351.98 248.5,-342.71 248.5,-334.11"/>
<polygon fill="grey" stroke="grey" stroke-width="2" points="252,-334.1 248.5,-324.1 245,-334.1 252,-334.1"/>
</g>
<!-- 6 -->
<g id="node7" class="node">
<title>6</title>
<path fill="none" stroke="#b6d856" stroke-width="2" d="M191,-324C191,-324 120,-324 120,-324 114,-324 108,-318 108,-312 108,-312 108,-300 108,-300 108,-294 114,-288 120,-288 120,-288 191,-288 191,-288 197,-288 203,-294 203,-300 203,-300 203,-312 203,-312 203,-318 197,-324 191,-324"/>
<text text-anchor="middle" x="155.5" y="-303.5" font-family="sans" font-size="10.00">gen_midthickness</text>
</g>
<!-- 6&#45;&gt;3 -->
<g id="edge5" class="edge">
<title>6&#45;&gt;3</title>
<path fill="none" stroke="grey" stroke-width="2" d="M148.08,-287.7C144.71,-279.81 140.63,-270.3 136.88,-261.55"/>
<polygon fill="grey" stroke="grey" stroke-width="2" points="139.99,-259.92 132.83,-252.1 133.55,-262.67 139.99,-259.92"/>
</g>
<!-- 7 -->
<g id="node8" class="node">
<title>7</title>
<path fill="none" stroke="#56d87b" stroke-width="2" d="M183.5,-396C183.5,-396 89.5,-396 89.5,-396 83.5,-396 77.5,-390 77.5,-384 77.5,-384 77.5,-372 77.5,-372 77.5,-366 83.5,-360 89.5,-360 89.5,-360 183.5,-360 183.5,-360 189.5,-360 195.5,-366 195.5,-372 195.5,-372 195.5,-384 195.5,-384 195.5,-390 189.5,-396 183.5,-396"/>
<text text-anchor="middle" x="136.5" y="-375.5" font-family="sans" font-size="10.00">apply_surf_tkr2scanner</text>
</g>
<!-- 7&#45;&gt;3 -->
<g id="edge7" class="edge">
<title>7&#45;&gt;3</title>
<path fill="none" stroke="grey" stroke-width="2" d="M120.04,-359.92C111.85,-350.22 102.8,-337.37 98.5,-324 93.6,-308.77 94.77,-303.56 98.5,-288 100.71,-278.81 104.79,-269.41 109.12,-261.13"/>
<polygon fill="grey" stroke="grey" stroke-width="2" points="112.22,-262.77 114.03,-252.33 106.1,-259.36 112.22,-262.77"/>
</g>
<!-- 7&#45;&gt;6 -->
<g id="edge9" class="edge">
<title>7&#45;&gt;6</title>
<path fill="none" stroke="grey" stroke-width="2" d="M141.2,-359.7C143.31,-351.9 145.86,-342.51 148.22,-333.83"/>
<polygon fill="grey" stroke="grey" stroke-width="2" points="151.62,-334.67 150.86,-324.1 144.86,-332.84 151.62,-334.67"/>
</g>
<!-- 8 -->
<g id="node9" class="node">
<title>8</title>
<path fill="none" stroke="#d89556" stroke-width="2" d="M71,-468C71,-468 12,-468 12,-468 6,-468 0,-462 0,-456 0,-456 0,-444 0,-444 0,-438 6,-432 12,-432 12,-432 71,-432 71,-432 77,-432 83,-438 83,-444 83,-444 83,-456 83,-456 83,-462 77,-468 71,-468"/>
<text text-anchor="middle" x="41.5" y="-447.5" font-family="sans" font-size="10.00">convert_to_gifti</text>
</g>
<!-- 8&#45;&gt;2 -->
<g id="edge4" class="edge">
<title>8&#45;&gt;2</title>
<path fill="none" stroke="grey" stroke-width="2" d="M43.11,-431.97C47.62,-384.19 60.42,-248.62 65.93,-190.27"/>
<polygon fill="grey" stroke="grey" stroke-width="2" points="69.41,-190.59 66.87,-180.31 62.44,-189.93 69.41,-190.59"/>
</g>
<!-- 8&#45;&gt;7 -->
<g id="edge11" class="edge">
<title>8&#45;&gt;7</title>
<path fill="none" stroke="grey" stroke-width="2" d="M64.98,-431.7C77.06,-422.8 91.95,-411.82 105.02,-402.2"/>
<polygon fill="grey" stroke="grey" stroke-width="2" points="107.31,-404.85 113.29,-396.1 103.16,-399.22 107.31,-404.85"/>
</g>
<!-- 9 -->
<g id="node10" class="node">
<title>9</title>
<path fill="none" stroke="#56b9d8" stroke-width="2" d="M124.5,-612C124.5,-612 60.5,-612 60.5,-612 54.5,-612 48.5,-606 48.5,-600 48.5,-600 48.5,-588 48.5,-588 48.5,-582 54.5,-576 60.5,-576 60.5,-576 124.5,-576 124.5,-576 130.5,-576 136.5,-582 136.5,-588 136.5,-588 136.5,-600 136.5,-600 136.5,-606 130.5,-612 124.5,-612"/>
<text text-anchor="middle" x="92.5" y="-591.5" font-family="sans" font-size="10.00">extract_from_tar</text>
</g>
<!-- 9&#45;&gt;8 -->
<g id="edge12" class="edge">
<title>9&#45;&gt;8</title>
<path fill="none" stroke="grey" stroke-width="2" d="M86.35,-575.87C77.58,-551.46 61.41,-506.43 51.07,-477.64"/>
<polygon fill="grey" stroke="grey" stroke-width="2" points="54.35,-476.42 47.67,-468.19 47.76,-478.78 54.35,-476.42"/>
</g>
<!-- 11 -->
<g id="node12" class="node">
<title>11</title>
<path fill="none" stroke="#d87556" stroke-width="2" d="M165,-540C165,-540 106,-540 106,-540 100,-540 94,-534 94,-528 94,-528 94,-516 94,-516 94,-510 100,-504 106,-504 106,-504 165,-504 165,-504 171,-504 177,-510 177,-516 177,-516 177,-528 177,-528 177,-534 171,-540 165,-540"/>
<text text-anchor="middle" x="135.5" y="-519.5" font-family="sans" font-size="10.00">convert_to_nifti</text>
</g>
<!-- 9&#45;&gt;11 -->
<g id="edge14" class="edge">
<title>9&#45;&gt;11</title>
<path fill="none" stroke="grey" stroke-width="2" d="M103.13,-575.7C108.13,-567.56 114.19,-557.69 119.71,-548.7"/>
<polygon fill="grey" stroke="grey" stroke-width="2" points="122.74,-550.46 124.99,-540.1 116.78,-546.79 122.74,-550.46"/>
</g>
<!-- 10 -->
<g id="node11" class="node">
<title>10</title>
<path fill="none" stroke="#56d8b9" stroke-width="2" d="M175.5,-468C175.5,-468 113.5,-468 113.5,-468 107.5,-468 101.5,-462 101.5,-456 101.5,-456 101.5,-444 101.5,-444 101.5,-438 107.5,-432 113.5,-432 113.5,-432 175.5,-432 175.5,-432 181.5,-432 187.5,-438 187.5,-444 187.5,-444 187.5,-456 187.5,-456 187.5,-462 181.5,-468 175.5,-468"/>
<text text-anchor="middle" x="144.5" y="-447.5" font-family="sans" font-size="10.00">get_tkr2scanner</text>
</g>
<!-- 10&#45;&gt;7 -->
<g id="edge10" class="edge">
<title>10&#45;&gt;7</title>
<path fill="none" stroke="grey" stroke-width="2" d="M142.52,-431.7C141.64,-423.98 140.58,-414.71 139.6,-406.11"/>
<polygon fill="grey" stroke="grey" stroke-width="2" points="143.07,-405.64 138.45,-396.1 136.11,-406.44 143.07,-405.64"/>
</g>
<!-- 11&#45;&gt;10 -->
<g id="edge13" class="edge">
<title>11&#45;&gt;10</title>
<path fill="none" stroke="grey" stroke-width="2" d="M137.72,-503.7C138.72,-495.98 139.91,-486.71 141.01,-478.11"/>
<polygon fill="grey" stroke="grey" stroke-width="2" points="144.5,-478.47 142.3,-468.1 137.55,-477.58 144.5,-478.47"/>
</g>
</g>
</svg>
