<?xml version="1.0" encoding="UTF-8" standalone="no"?>
<!DOCTYPE svg PUBLIC "-//W3C//DTD SVG 1.1//EN"
 "http://www.w3.org/Graphics/SVG/1.1/DTD/svg11.dtd">
<!-- Generated by graphviz version 2.42.3 (20191010.1750)
 -->
<!-- Title: snakemake_dag Pages: 1 -->
<svg width="284pt" height="692pt"
 viewBox="0.00 0.00 283.50 692.00" xmlns="http://www.w3.org/2000/svg" xmlns:xlink="http://www.w3.org/1999/xlink">
<g id="graph0" class="graph" transform="scale(1 1) rotate(0) translate(4 688)">
<title>snakemake_dag</title>
<polygon fill="white" stroke="transparent" points="-4,4 -4,-688 279.5,-688 279.5,4 -4,4"/>
<!-- 0 -->
<g id="node1" class="node">
<title>0</title>
<path fill="none" stroke="#56c9d8" stroke-width="2" d="M93.5,-36C93.5,-36 43.5,-36 43.5,-36 37.5,-36 31.5,-30 31.5,-24 31.5,-24 31.5,-12 31.5,-12 31.5,-6 37.5,0 43.5,0 43.5,0 93.5,0 93.5,0 99.5,0 105.5,-6 105.5,-12 105.5,-12 105.5,-24 105.5,-24 105.5,-30 99.5,-36 93.5,-36"/>
<text text-anchor="middle" x="68.5" y="-15.5" font-family="sans" font-size="10.00">parcellate_all</text>
</g>
<!-- 1 -->
<g id="node2" class="node">
<title>1</title>
<path fill="none" stroke="#d87556" stroke-width="2" d="M86,-108C86,-108 51,-108 51,-108 45,-108 39,-102 39,-96 39,-96 39,-84 39,-84 39,-78 45,-72 51,-72 51,-72 86,-72 86,-72 92,-72 98,-78 98,-84 98,-84 98,-96 98,-96 98,-102 92,-108 86,-108"/>
<text text-anchor="middle" x="68.5" y="-87.5" font-family="sans" font-size="10.00">parcellate</text>
</g>
<!-- 1&#45;&gt;0 -->
<g id="edge1" class="edge">
<title>1&#45;&gt;0</title>
<path fill="none" stroke="grey" stroke-width="2" d="M68.5,-71.7C68.5,-63.98 68.5,-54.71 68.5,-46.11"/>
<polygon fill="grey" stroke="grey" stroke-width="2" points="72,-46.1 68.5,-36.1 65,-46.1 72,-46.1"/>
</g>
<!-- 2 -->
<g id="node3" class="node">
<title>2</title>
<path fill="none" stroke="#d8ac56" stroke-width="2" d="M98,-180C98,-180 39,-180 39,-180 33,-180 27,-174 27,-168 27,-168 27,-156 27,-156 27,-150 33,-144 39,-144 39,-144 98,-144 98,-144 104,-144 110,-150 110,-156 110,-156 110,-168 110,-168 110,-174 104,-180 98,-180"/>
<text text-anchor="middle" x="68.5" y="-159.5" font-family="sans" font-size="10.00">temp_resample</text>
</g>
<!-- 2&#45;&gt;1 -->
<g id="edge2" class="edge">
<title>2&#45;&gt;1</title>
<path fill="none" stroke="grey" stroke-width="2" d="M68.5,-143.7C68.5,-135.98 68.5,-126.71 68.5,-118.11"/>
<polygon fill="grey" stroke="grey" stroke-width="2" points="72,-118.1 68.5,-108.1 65,-118.1 72,-118.1"/>
</g>
<!-- 3 -->
<g id="node4" class="node">
<title>3</title>
<path fill="none" stroke="#5692d8" stroke-width="2" d="M101,-252C101,-252 36,-252 36,-252 30,-252 24,-246 24,-240 24,-240 24,-228 24,-228 24,-222 30,-216 36,-216 36,-216 101,-216 101,-216 107,-216 113,-222 113,-228 113,-228 113,-240 113,-240 113,-246 107,-252 101,-252"/>
<text text-anchor="middle" x="68.5" y="-231.5" font-family="sans" font-size="10.00">metric_resample</text>
</g>
<!-- 3&#45;&gt;2 -->
<g id="edge3" class="edge">
<title>3&#45;&gt;2</title>
<path fill="none" stroke="grey" stroke-width="2" d="M68.5,-215.7C68.5,-207.98 68.5,-198.71 68.5,-190.11"/>
<polygon fill="grey" stroke="grey" stroke-width="2" points="72,-190.1 68.5,-180.1 65,-190.1 72,-190.1"/>
</g>
<!-- 4 -->
<g id="node5" class="node">
<title>4</title>
<path fill="none" stroke="#c6d856" stroke-width="2" d="M140.5,-324C140.5,-324 110.5,-324 110.5,-324 104.5,-324 98.5,-318 98.5,-312 98.5,-312 98.5,-300 98.5,-300 98.5,-294 104.5,-288 110.5,-288 110.5,-288 140.5,-288 140.5,-288 146.5,-288 152.5,-294 152.5,-300 152.5,-300 152.5,-312 152.5,-312 152.5,-318 146.5,-324 140.5,-324"/>
<text text-anchor="middle" x="125.5" y="-303.5" font-family="sans" font-size="10.00">vol2surf</text>
</g>
<!-- 4&#45;&gt;3 -->
<g id="edge5" class="edge">
<title>4&#45;&gt;3</title>
<path fill="none" stroke="grey" stroke-width="2" d="M111.41,-287.7C104.58,-279.3 96.24,-269.07 88.74,-259.86"/>
<polygon fill="grey" stroke="grey" stroke-width="2" points="91.46,-257.65 82.43,-252.1 86.03,-262.07 91.46,-257.65"/>
</g>
<!-- 5 -->
<g id="node6" class="node">
<title>5</title>
<path fill="none" stroke="#afd856" stroke-width="2" d="M263.5,-396C263.5,-396 233.5,-396 233.5,-396 227.5,-396 221.5,-390 221.5,-384 221.5,-384 221.5,-372 221.5,-372 221.5,-366 227.5,-360 233.5,-360 233.5,-360 263.5,-360 263.5,-360 269.5,-360 275.5,-366 275.5,-372 275.5,-372 275.5,-384 275.5,-384 275.5,-390 269.5,-396 263.5,-396"/>
<text text-anchor="middle" x="248.5" y="-375.5" font-family="sans" font-size="10.00">denoise</text>
</g>
<!-- 5&#45;&gt;4 -->
<g id="edge7" class="edge">
<title>5&#45;&gt;4</title>
<path fill="none" stroke="grey" stroke-width="2" d="M221.2,-361.46C203.61,-351.45 180.53,-338.32 161.45,-327.46"/>
<polygon fill="grey" stroke="grey" stroke-width="2" points="163.14,-324.4 152.72,-322.49 159.68,-330.48 163.14,-324.4"/>
</g>
<!-- 6 -->
<g id="node7" class="node">
<title>6</title>
<path fill="none" stroke="#d85656" stroke-width="2" d="M263.5,-468C263.5,-468 233.5,-468 233.5,-468 227.5,-468 221.5,-462 221.5,-456 221.5,-456 221.5,-444 221.5,-444 221.5,-438 227.5,-432 233.5,-432 233.5,-432 263.5,-432 263.5,-432 269.5,-432 275.5,-438 275.5,-444 275.5,-444 275.5,-456 275.5,-456 275.5,-462 269.5,-468 263.5,-468"/>
<text text-anchor="middle" x="248.5" y="-447.5" font-family="sans" font-size="10.00">smooth</text>
</g>
<!-- 6&#45;&gt;5 -->
<g id="edge9" class="edge">
<title>6&#45;&gt;5</title>
<path fill="none" stroke="grey" stroke-width="2" d="M248.5,-431.7C248.5,-423.98 248.5,-414.71 248.5,-406.11"/>
<polygon fill="grey" stroke="grey" stroke-width="2" points="252,-406.1 248.5,-396.1 245,-406.1 252,-406.1"/>
</g>
<!-- 7 -->
<g id="node8" class="node">
<title>7</title>
<path fill="none" stroke="#d8cb56" stroke-width="2" d="M191,-396C191,-396 120,-396 120,-396 114,-396 108,-390 108,-384 108,-384 108,-372 108,-372 108,-366 114,-360 120,-360 120,-360 191,-360 191,-360 197,-360 203,-366 203,-372 203,-372 203,-384 203,-384 203,-390 197,-396 191,-396"/>
<text text-anchor="middle" x="155.5" y="-375.5" font-family="sans" font-size="10.00">gen_midthickness</text>
</g>
<!-- 7&#45;&gt;4 -->
<g id="edge6" class="edge">
<title>7&#45;&gt;4</title>
<path fill="none" stroke="grey" stroke-width="2" d="M148.08,-359.7C144.71,-351.81 140.63,-342.3 136.88,-333.55"/>
<polygon fill="grey" stroke="grey" stroke-width="2" points="139.99,-331.92 132.83,-324.1 133.55,-334.67 139.99,-331.92"/>
</g>
<!-- 8 -->
<g id="node9" class="node">
<title>8</title>
<path fill="none" stroke="#5673d8" stroke-width="2" d="M183.5,-468C183.5,-468 89.5,-468 89.5,-468 83.5,-468 77.5,-462 77.5,-456 77.5,-456 77.5,-444 77.5,-444 77.5,-438 83.5,-432 89.5,-432 89.5,-432 183.5,-432 183.5,-432 189.5,-432 195.5,-438 195.5,-444 195.5,-444 195.5,-456 195.5,-456 195.5,-462 189.5,-468 183.5,-468"/>
<text text-anchor="middle" x="136.5" y="-447.5" font-family="sans" font-size="10.00">apply_surf_tkr2scanner</text>
</g>
<!-- 8&#45;&gt;4 -->
<g id="edge8" class="edge">
<title>8&#45;&gt;4</title>
<path fill="none" stroke="grey" stroke-width="2" d="M120.04,-431.92C111.85,-422.22 102.8,-409.37 98.5,-396 93.6,-380.77 94.77,-375.56 98.5,-360 100.71,-350.81 104.79,-341.41 109.12,-333.13"/>
<polygon fill="grey" stroke="grey" stroke-width="2" points="112.22,-334.77 114.03,-324.33 106.1,-331.36 112.22,-334.77"/>
</g>
<!-- 8&#45;&gt;7 -->
<g id="edge10" class="edge">
<title>8&#45;&gt;7</title>
<path fill="none" stroke="grey" stroke-width="2" d="M141.2,-431.7C143.31,-423.9 145.86,-414.51 148.22,-405.83"/>
<polygon fill="grey" stroke="grey" stroke-width="2" points="151.62,-406.67 150.86,-396.1 144.86,-404.84 151.62,-406.67"/>
</g>
<!-- 9 -->
<g id="node10" class="node">
<title>9</title>
<path fill="none" stroke="#56a9d8" stroke-width="2" d="M71,-540C71,-540 12,-540 12,-540 6,-540 0,-534 0,-528 0,-528 0,-516 0,-516 0,-510 6,-504 12,-504 12,-504 71,-504 71,-504 77,-504 83,-510 83,-516 83,-516 83,-528 83,-528 83,-534 77,-540 71,-540"/>
<text text-anchor="middle" x="41.5" y="-519.5" font-family="sans" font-size="10.00">convert_to_gifti</text>
</g>
<!-- 9&#45;&gt;3 -->
<g id="edge4" class="edge">
<title>9&#45;&gt;3</title>
<path fill="none" stroke="grey" stroke-width="2" d="M43.11,-503.97C47.62,-456.19 60.42,-320.62 65.93,-262.27"/>
<polygon fill="grey" stroke="grey" stroke-width="2" points="69.41,-262.59 66.87,-252.31 62.44,-261.93 69.41,-262.59"/>
</g>
<!-- 9&#45;&gt;8 -->
<g id="edge11" class="edge">
<title>9&#45;&gt;8</title>
<path fill="none" stroke="grey" stroke-width="2" d="M64.98,-503.7C77.06,-494.8 91.95,-483.82 105.02,-474.2"/>
<polygon fill="grey" stroke="grey" stroke-width="2" points="107.31,-476.85 113.29,-468.1 103.16,-471.22 107.31,-476.85"/>
</g>
<!-- 10 -->
<g id="node11" class="node">
<title>10</title>
<path fill="none" stroke="#56d873" stroke-width="2" d="M124.5,-684C124.5,-684 60.5,-684 60.5,-684 54.5,-684 48.5,-678 48.5,-672 48.5,-672 48.5,-660 48.5,-660 48.5,-654 54.5,-648 60.5,-648 60.5,-648 124.5,-648 124.5,-648 130.5,-648 136.5,-654 136.5,-660 136.5,-660 136.5,-672 136.5,-672 136.5,-678 130.5,-684 124.5,-684"/>
<text text-anchor="middle" x="92.5" y="-663.5" font-family="sans" font-size="10.00">extract_from_tar</text>
</g>
<!-- 10&#45;&gt;9 -->
<g id="edge13" class="edge">
<title>10&#45;&gt;9</title>
<path fill="none" stroke="grey" stroke-width="2" d="M86.35,-647.87C77.58,-623.46 61.41,-578.43 51.07,-549.64"/>
<polygon fill="grey" stroke="grey" stroke-width="2" points="54.35,-548.42 47.67,-540.19 47.76,-550.78 54.35,-548.42"/>
</g>
<!-- 12 -->
<g id="node13" class="node">
<title>12</title>
<path fill="none" stroke="#56d892" stroke-width="2" d="M165,-612C165,-612 106,-612 106,-612 100,-612 94,-606 94,-600 94,-600 94,-588 94,-588 94,-582 100,-576 106,-576 106,-576 165,-576 165,-576 171,-576 177,-582 177,-588 177,-588 177,-600 177,-600 177,-606 171,-612 165,-612"/>
<text text-anchor="middle" x="135.5" y="-591.5" font-family="sans" font-size="10.00">convert_to_nifti</text>
</g>
<!-- 10&#45;&gt;12 -->
<g id="edge15" class="edge">
<title>10&#45;&gt;12</title>
<path fill="none" stroke="grey" stroke-width="2" d="M103.13,-647.7C108.13,-639.56 114.19,-629.69 119.71,-620.7"/>
<polygon fill="grey" stroke="grey" stroke-width="2" points="122.74,-622.46 124.99,-612.1 116.78,-618.79 122.74,-622.46"/>
</g>
<!-- 11 -->
<g id="node12" class="node">
<title>11</title>
<path fill="none" stroke="#8fd856" stroke-width="2" d="M175.5,-540C175.5,-540 113.5,-540 113.5,-540 107.5,-540 101.5,-534 101.5,-528 101.5,-528 101.5,-516 101.5,-516 101.5,-510 107.5,-504 113.5,-504 113.5,-504 175.5,-504 175.5,-504 181.5,-504 187.5,-510 187.5,-516 187.5,-516 187.5,-528 187.5,-528 187.5,-534 181.5,-540 175.5,-540"/>
<text text-anchor="middle" x="144.5" y="-519.5" font-family="sans" font-size="10.00">get_tkr2scanner</text>
</g>
<!-- 11&#45;&gt;8 -->
<g id="edge12" class="edge">
<title>11&#45;&gt;8</title>
<path fill="none" stroke="grey" stroke-width="2" d="M142.52,-503.7C141.64,-495.98 140.58,-486.71 139.6,-478.11"/>
<polygon fill="grey" stroke="grey" stroke-width="2" points="143.07,-477.64 138.45,-468.1 136.11,-478.44 143.07,-477.64"/>
</g>
<!-- 12&#45;&gt;11 -->
<g id="edge14" class="edge">
<title>12&#45;&gt;11</title>
<path fill="none" stroke="grey" stroke-width="2" d="M137.72,-575.7C138.72,-567.98 139.91,-558.71 141.01,-550.11"/>
<polygon fill="grey" stroke="grey" stroke-width="2" points="144.5,-550.47 142.3,-540.1 137.55,-549.58 144.5,-550.47"/>
</g>
</g>
</svg>
